# xmcd CD database file
#
# Track frame offsets:
#	183
#	22763
#	48233
#	105293
#	130240
#	157308
#
# Disc length: 2414 seconds
#
# Revision: 0
# Processed by: cddbd v1.5.1PL0 Copyright (c) Steve Scherf et al.
# Submitted via: CDex 1.51
#
DISCID=40096c06
DTITLE=Muhal Richard Abrams - Sightsong
DYEAR=1976
DGENRE=Jazz
TTITLE0=W.W. (Dedicated to Wilbur Ware)
TTITLE1=J.G. (Dedicated to Jonny Griffin
TTITLE2=Sightsong
TTITLE3=Two Over One
TTITLE4=Way Way Way Down Yonder
TTITLE5=Panorama
EXTD=YEAR: 1976
EXTT0=
EXTT1=
EXTT2=
EXTT3=
EXTT4=
EXTT5=
PLAYORDER=
